<?xml version="1.0" encoding="utf-8"?>
<!-- Generator: Adobe Illustrator 26.0.1, SVG Export Plug-In . SVG Version: 6.00 Build 0)  -->
<svg version="1.1" id="Layer_1" xmlns="http://www.w3.org/2000/svg" xmlns:xlink="http://www.w3.org/1999/xlink" x="0px" y="0px"
	 viewBox="0 0 787.5 127.6" style="enable-background:new 0 0 787.5 127.6;" xml:space="preserve">
<style type="text/css">
	.st0{fill-rule:evenodd;clip-rule:evenodd;fill:#231815;}
	.st1{fill-rule:evenodd;clip-rule:evenodd;fill:#EE732C;}
</style>
<g>
	<path class="st0" d="M38.8,86.8c-0.6-0.1-1.4-0.6-2-1c-5.6-5.4,1.5-11.6,9.8-15.3V60.2c2,1.2,3,1.3,3.1,1.5l6.3-6.3l-2.1-5.3
		c18.5-6.4,25.9-8.9,40.9-11.4l-2.7-2.5l4.4-2.6c10.1,3.4,19.5,4.2,17.9,12.7c0.4-5.7-6.6-7.9-17.6-11l-2,1.3l4,3.3
		c-18,3.1-29.1,6.6-42.2,11.1l1.7,4.7l-6.5,6.5c1.1,0.3,12.6,4.2,24.6-4.2c0.1-0.1,0.2-0.1,0.2-0.2c-0.4-0.6-1.2-1.2-2.2-2.1
		c3.4,0.2,5.7,3.3,5.3,6.5h-1.6c0.2-1-0.1-2.2-0.5-2.9c-9.2,6.8-19.9,7.8-29.1,4.6v8c-4.5,1.5-12.4,6.5-12.4,11.2
		C36.5,85.4,37.7,86.2,38.8,86.8L38.8,86.8z"/>
	<path class="st1" d="M76.3,84.7c-9.9,5.1-19.4,9.1-34.2,9.7c-19-0.4-22-13.1-12.9-26.3c8.5-13.4,22-25.5,43.6-33.1
		c6.2-2.2,15.5-4.7,24.3-4.8c12.7-0.1,25.1,3.9,24.3,16c-0.4,9.4-13.9,22.6-21,32.1c-3.1,4.1-3.6,6.8,1.6,6.6
		c18.8-1.2,36-7.8,51.7-14.5c-10.6,7.2-66.1,34.7-66.4,15.9c0.1-2.3,1.2-4.9,3-7.5c1.8-2.6,4.2-5.5,6.8-8.4
		c3.8-4.3,13.1-14.7,16.3-20.9c5.3-11.7-6.6-12.3-16.8-15.9l-4.4,2.6l2.6,2.5c-15,2.5-22.4,5-40.9,11.4l2.1,5.3l-6.3,6.3
		c-0.1-0.2-1.1-0.3-3.1-1.5v10.3c-8.2,3.6-15.4,9.9-9.8,15.3c0.6,0.5,1.4,0.9,2,1c0,0,0,0-0.1,0C48.9,92.5,76.3,84.7,76.3,84.7
		L76.3,84.7z"/>
	<path class="st1" d="M269.7,42.6V30.9h17v11.6H269.7L269.7,42.6z M270.5,90.4V49h15.8v41.4H270.5L270.5,90.4z M625.6,53.9
		c8.3,0,15.2,6.9,15.2,15.2c0,8.5-6.9,15.2-15.2,15.2c-8.5,0-15.2-6.7-15.2-15.2C610.4,60.7,617.1,53.9,625.6,53.9L625.6,53.9z
		 M625.6,91.4c12.2,0,22.2-10,22.2-22.4c0-12.2-10-22.2-22.2-22.2c-12.4,0-22.4,10-22.4,22.2C603.2,81.5,613.2,91.4,625.6,91.4
		L625.6,91.4z M544.4,90.4h7V84h-7V90.4L544.4,90.4z M597.6,85c-2.2,1.9-6.9,6.4-15.5,6.4c-11.3,0-22.2-8.9-22.2-22.4
		c0-13.3,10.9-22.2,22.2-22.2c8.2,0,13.3,4.5,15.5,6.4c-1.3,1.8-2.5,5.5-3.1,7.2c-4.2-5.7-9.2-6.6-12.4-6.6c-8.3,0-15.2,7-15.2,15.2
		c0,8.3,6.9,15.3,15.2,15.3c4.6,0,9.1-2.1,12.5-6.6C595.6,81.6,596.8,83.7,597.6,85L597.6,85z M657.8,90.4V49h6.3v5.8
		c1.3-2.1,3.1-3.7,5.2-4.9c2.1-1.2,4.6-1.9,7.4-1.9c3,0,5.5,0.7,7.5,1.9c1.9,1.3,3.4,3.1,4.2,5.4c3.3-4.8,7.6-7.3,12.8-7.3
		c4,0,7.3,1.2,9.4,3.4c2.2,2.4,3.4,5.8,3.4,10.6v28.5h-7V64.3c0-2.8-0.3-4.9-0.7-6.1c-0.4-1.2-1.2-2.2-2.4-3
		c-1.2-0.7-2.7-1.2-4.3-1.2c-2.8,0-5.2,1-7.2,3c-1.9,1.9-3,5.1-3,9.2v24.1h-7v-27c0-3.1-0.6-5.5-1.6-7c-1.2-1.5-3.1-2.4-5.7-2.4
		c-1.9,0-3.7,0.6-5.5,1.6c-1.6,1-2.8,2.5-3.6,4.5c-0.7,2.1-1.2,4.9-1.2,8.8v21.5H657.8L657.8,90.4z M711.3,39.9V32h-3v-1h7.2v1h-3
		v7.9H711.3L711.3,39.9z M716.5,39.9v-8.9h1.8l2.2,6.4c0.1,0.6,0.3,1,0.4,1.3c0-0.3,0.1-0.9,0.4-1.5l2.1-6.3h1.6v8.9h-1.2v-7.5
		l-2.5,7.5h-1.2l-2.5-7.6v7.6H716.5L716.5,39.9z M514.7,84.3c-1.6,2.2-4.2,4-7.5,5.2c-0.7,0.3-1.5,0.6-2.2,0.7c-2.8,0.7-6,1-9.5,1
		c-5.2,0-9.2-1-12.1-3.3c-3-2.1-4.3-5.2-4.3-9.2c0-2.5,0.6-4.8,1.6-6.7c1-1.9,2.7-3.6,4.8-4.9c1.6-1,4-1.8,7-2.2
		c2.7-0.3,6.9-0.6,12.5-0.6c0.4,0,1,0,1.6,0h7.7c0-0.2,0-0.4,0-0.6c0-0.3,0-0.4,0-0.6c0-2.2-0.6-3.9-1.9-5.1
		c-1.3-1.2-3.3-1.8-5.8-1.8c-0.6,0-1.2,0-1.6,0c-2.1,0.1-3.6,0.6-4.8,1.2c-1.3,0.7-2.2,2.1-2.5,3.7h-15.9c0.4-4.5,2.8-7.8,6.9-10
		c3.7-1.9,9.2-3,16.4-3.1c0.6-0.1,1.2-0.1,1.9-0.1c7.7,0,13.6,1.3,17.1,3.9c3.7,2.7,5.7,6.6,5.7,12.1v21c0,1.2,0,2.2,0.1,3
		c0.1,0.9,0.3,1.8,0.6,2.5h-14.8c-0.3-0.7-0.6-1.6-0.7-2.5c-0.1-0.9-0.3-1.8-0.3-2.8V84.3L514.7,84.3z M505,82.4
		c2.7-0.3,4.9-1,6.6-2.5c1.8-1.5,2.8-3.9,2.8-7v-0.9h-1.3c-3.1,0-5.8,0-8,0.3c-2.4,0.1-4.3,0.6-5.7,1c-2.5,0.9-3.7,2.4-3.7,4.5
		c0,1.5,0.6,2.7,1.9,3.4c1.3,0.7,3.3,1.2,6,1.2C504,82.4,504.4,82.4,505,82.4L505,82.4z M457.3,68.5c0-3.7-1-6.7-3.1-8.9
		c-2.1-2.2-4.8-3.3-8.2-3.3h-0.1c-3.7,0-6.6,1-8.5,3.3c-1.9,2.1-3,5.4-3,9.5c0,4,1,7.2,3,9.4c2.1,2.2,4.8,3.3,8.3,3.3
		c0.1,0,0.1,0,0.1,0c3.6,0,6.4-1.2,8.3-3.4C456.3,75.9,457.3,72.7,457.3,68.5L457.3,68.5z M445.9,48.7c1.9-0.6,4.2-0.7,6.4-0.7
		c6.6,0,11.8,1.9,15.5,5.8c3.9,3.7,5.8,8.9,5.8,15.6c0,6.9-1.9,12.2-5.5,16.1c-3.7,3.9-8.9,5.8-15.5,5.8c-2.4,0-4.6-0.3-6.7-0.9
		c-1.2-0.3-2.4-0.7-3.4-1.3c-3.1-1.5-5.7-3.6-7.9-6.4v1.2c0,1.2,0,2.2-0.1,3.3c0,1-0.1,2.2-0.3,3.3h-15.9c0.1-1.8,0.3-3.4,0.4-4.9
		c0.1-1.6,0.1-3.1,0.1-4.5V30.9h15.8v24c2.4-2.4,5.1-4.2,8-5.2C443.6,49.3,444.7,48.8,445.9,48.7L445.9,48.7z M393,84.3
		c-1.8,2.2-4.2,4-7.6,5.2c-0.6,0.3-1.3,0.6-2.2,0.7c-2.7,0.7-6,1-9.4,1c-5.2,0-9.4-1-12.2-3.3c-2.8-2.1-4.3-5.2-4.3-9.2
		c0-2.5,0.6-4.8,1.8-6.7c1-1.9,2.7-3.6,4.8-4.9c1.6-1,3.9-1.8,6.9-2.2c2.8-0.3,7-0.6,12.5-0.6c0.6,0,1.2,0,1.8,0h7.6
		c0-0.2,0-0.4,0.1-0.6c0-0.3,0-0.4,0-0.6c0-2.2-0.7-3.9-1.9-5.1c-1.3-1.2-3.3-1.8-5.8-1.8c-0.6,0-1.2,0-1.8,0
		c-1.9,0.1-3.6,0.6-4.6,1.2c-1.5,0.7-2.2,2.1-2.5,3.7h-16.1c0.6-4.5,2.8-7.8,7-10c3.7-1.9,9.1-3,16.2-3.1c0.7-0.1,1.3-0.1,1.9-0.1
		c7.9,0,13.6,1.3,17.3,3.9c3.7,2.7,5.5,6.6,5.5,12.1v21c0,1.2,0.1,2.2,0.1,3c0.1,0.9,0.4,1.8,0.7,2.5H394c-0.4-0.7-0.6-1.6-0.7-2.5
		c-0.1-0.9-0.3-1.8-0.3-2.8V84.3L393,84.3z M383.1,82.4c2.8-0.3,5.1-1,6.6-2.5c1.9-1.5,2.8-3.9,2.8-7v-0.9h-1.2c-3.1,0-6,0-8.2,0.3
		c-2.4,0.1-4.2,0.6-5.5,1c-2.5,0.9-3.9,2.4-3.9,4.5c0,1.5,0.7,2.7,1.9,3.4c1.3,0.7,3.3,1.2,6,1.2C382.2,82.4,382.7,82.4,383.1,82.4
		L383.1,82.4z M335.4,68.5c0-3.7-0.9-6.7-3-8.9c-2.1-2.2-4.8-3.3-8.2-3.3c-0.1,0-0.1,0-0.3,0c-3.6,0-6.4,1-8.3,3.3
		c-2.1,2.1-3,5.4-3,9.5c0,4,0.9,7.2,3,9.4c1.9,2.2,4.8,3.3,8.3,3.3c3.7,0,6.6-1.2,8.5-3.4C334.5,75.9,335.4,72.7,335.4,68.5
		L335.4,68.5z M324,48.7c2.1-0.6,4.2-0.7,6.6-0.7c6.6,0,11.6,1.9,15.5,5.8c3.7,3.7,5.7,8.9,5.7,15.6c0,6.9-1.8,12.2-5.5,16.1
		c-3.7,3.9-8.8,5.8-15.3,5.8c-2.4,0-4.6-0.3-6.9-0.9c-1-0.3-2.2-0.7-3.4-1.3c-3-1.5-5.7-3.6-7.7-6.4v1.2c0,1.2-0.2,2.2-0.2,3.3
		c-0.1,1-0.3,2.2-0.4,3.3h-15.9c0.3-1.8,0.4-3.4,0.4-4.9c0.1-1.6,0.3-3.1,0.3-4.5V30.9h15.8v24c2.4-2.4,5.1-4.2,7.9-5.2
		C321.7,49.3,322.9,48.8,324,48.7L324,48.7z M201,30.9h11.3l29.1,59.5h-19.1l-5.2-12.1H201h-16.2l-5.5,12.1h-17.9l30.8-59.5H201
		L201,30.9z M201,66.9h10.6l-10.1-22.8l-0.4,1l-10.7,21.8H201L201,66.9z M244.1,90.4V30.9h15.8v59.5H244.1L244.1,90.4z"/>
</g>
</svg>
