<?xml version="1.0" encoding="utf-8"?>
<!-- Generator: Adobe Illustrator 26.1.0, SVG Export Plug-In . SVG Version: 6.00 Build 0)  -->
<svg version="1.1" id="레이어_1" xmlns="http://www.w3.org/2000/svg" xmlns:xlink="http://www.w3.org/1999/xlink" x="0px"
	 y="0px" viewBox="0 0 1218.8 164.9" style="enable-background:new 0 0 1218.8 164.9;" xml:space="preserve">
<style type="text/css">
	.st0{fill:#333333;}
</style>
<g>
	<g>
		<path class="st0" d="M696.7,3.2l-42.5,0.4c-0.9,0-1.7,0.1-2.6,0.1c-20.1,0.5-36.6,6.7-48.2,18.3c-4.4,4.4-7.9,9.4-11,14.7
			c-1.1,1.9-2.1,3.7-3,5.7c-2.8,6-5,12.4-6.3,18.9c2.6-3.5,5.6-6.5,8.8-9c17.5-13.6,42-13.3,42-13.3l16.2-1.3
			c14.6-2,25.7-6,34.1-10.6c8.5-4.7,14.2-10.1,18-14.9c2.8-3.5,4.6-6.7,5.7-8.9L696.7,3.2z"/>
	</g>
	<g>
		<path class="st0" d="M613.3,3.6h-31.7v33.6c3.6-8.1,8.4-15.6,14.7-21.9C601.1,10.5,606.8,6.6,613.3,3.6z"/>
	</g>
	<g>
		<path class="st0" d="M630.5,83l-34.2,79.6h30.2L660.4,83l18.4-43.2c-8.6,3.5-19.4,6.3-32.8,7.5L630.5,83z"/>
	</g>
	<g>
		<path class="st0" d="M186.2,14c-36.2,0-65.7,30.6-65.7,68.2c0,0.3,0,0.6,0,0.9c0.5,37.2,29.7,67.3,65.6,67.3s65.2-30.1,65.6-67.3
			c0-0.3,0-0.6,0-0.9C251.9,44.5,222.4,14,186.2,14z M225.8,83c-0.4,22.8-18,41.2-39.6,41.2c-21.6,0-39.1-18.4-39.6-41.2
			c0-0.3,0-0.6,0-0.9c0-23.2,17.8-42.1,39.6-42.1c21.8,0,39.6,18.9,39.6,42.1C225.9,82.4,225.8,82.7,225.8,83z"/>
	</g>
	<g>
		<path class="st0" d="M554.7,123.1V83V13.9h-31.5L479.8,83l-25.2,40.1h-45.5c2.4-1.8,4.9-4.2,7.3-6.1c2.4-1.8,4.9-3.6,7.9-6.1
			c7.9-5.5,15.2-11.5,23.7-17.6c4.4-3.1,8.4-6.5,12.2-10.4c3-3,5.8-6.2,8.4-9.6c6.1-7.9,9.7-17.6,9.7-27.9c0-6.7-1.2-12.7-4.2-18.2
			c-2.4-5.5-6.7-9.7-11.5-13.3S451.6,7.2,446.2,6c-6.7-1.8-13.3-3-20-3c-12.7-0.6-25.5,3.6-35.8,10.9c-4.9,3.6-9.1,7.9-12.1,12.7
			c-3,5.5-5.5,11.5-6.7,17.6l29.1,6.1c1.2-6.1,4.2-11.5,8.5-16.4c4.9-4.2,11.5-6.7,17.6-6.7c4.9,0,10.3,1.2,14.6,4.2
			c3.6,3,6.1,7.9,5.5,12.7c0,3.6-1.2,6.7-3,9.7c-2.4,3.6-4.9,6.7-7.9,9.7c-3,3-6.1,6.1-9.7,9.1c-3.6,2.4-6.1,4.9-8.5,6.7
			c-1.6,1.3-3.2,2.4-4.8,3.6c-3.8,2.8-7.6,5.6-11,8.5c-4.9,3.6-9.7,7.3-13.9,10.9c-4.2,3-7.9,6.7-10.9,10.3c-2.4,3-4.2,6.7-5.5,10.3
			v25.5H528v14.6h26.7v-14.6h33l10.9-25.5H554.7z M528.6,83v40.7h-41.8L511.9,83l16.8-27.2V83z"/>
	</g>
	<g>
		<path class="st0" d="M343.3,83c-18.7-16.2-50.8-19.1-50.8-35c0-6.9,5.6-12.5,15.5-12.5c14.7,0,22.6,8.7,26,12.9L352.8,26
			c-4.6-5.9-19-16.7-42.2-16.7c-28.8,0-49,18-49,41.1c0,15.9,8.4,25.6,19.2,32.6c18.9,12.3,44.9,16.2,44.9,30.2
			c0,7.3-5.8,13.5-17.8,13.5c-16.9,0-29-10.7-34.9-16.7l-17.3,25c4.8,5.4,21.4,17.3,48.2,17.3c35.3,0,52.6-20.2,52.6-41.1
			C356.3,98.4,350.9,89.6,343.3,83z"/>
	</g>
	<g>
		<path class="st0" d="M76.7,126.8c-22.7,0-41.2-19.6-41.2-43.8c0,0,0,0,0,0c0-0.5,0.1-1,0.1-1.6c0.8-23.4,18.9-42.3,41.2-42.3
			c10.1,0,19.3,3.9,26.5,10.2l17.4-20.8C108.7,18.2,93.4,12,76.7,12C39.5,12,9.3,43,8.4,81.4c0,0.5-0.1,1-0.1,1.6c0,0,0,0,0,0
			c0,39.1,30.7,70.9,68.4,70.9c16.7,0,32-6.2,43.8-16.6l-17.4-20.8C96,122.9,86.8,126.8,76.7,126.8z"/>
	</g>
</g>
<g>
	<g>
		<g>
			<polygon class="st0" points="789.4,85.6 787.2,91.9 786.5,91.9 784.3,85.6 762.9,24.8 721.2,24.8 721.2,85.6 721.2,149.2 
				746.1,149.2 746.1,85.6 746.1,57.1 747.1,57.1 757.2,85.6 774.5,134.3 796.8,134.3 814.3,85.6 824.5,57.1 825.2,57.1 825.2,85.6 
				825.2,149.2 851.1,149.2 851.1,85.6 851.1,24.8 810.5,24.8 			"/>
		</g>
		<g>
			<path class="st0" d="M943.8,24.8H906l-18.4,60.8l-19.2,63.6h27.3l8-28.6h41.7l7.8,28.6h28.4l-19.3-63.6L943.8,24.8z M909.9,98.3
				l3.6-12.7l1.6-5.4c4.4-15.8,7.1-25.9,9.2-36.6h0.7c2.1,11,4.6,20.1,9.4,37.3l1.3,4.7l3.5,12.7H909.9z"/>
		</g>
		<g>
			<polygon class="st0" points="998.4,85.6 998.4,149.2 1025.6,149.2 1025.6,85.6 1025.6,24.8 998.4,24.8 			"/>
		</g>
		<g>
			<polygon class="st0" points="1055.7,85.3 1094.4,24.8 1063.2,24.8 1026.4,85.6 1026.3,85.8 1026.3,86.5 1064.4,149.2 
				1098.3,149.2 1055.9,85.6 			"/>
		</g>
		<g>
			<polygon class="st0" points="1140.4,126.8 1140.4,97.2 1197,97.2 1197.1,85.6 1197.1,74.8 1140.4,74.8 1140.4,47.1 1196.8,47.1 
				1196.9,24.7 1113.4,24.8 1113.4,85.6 1113.4,149.2 1199.5,149.2 1215,126.8 			"/>
		</g>
	</g>
</g>
</svg>
