<?xml version="1.0" encoding="utf-8"?>
<!-- Generator: Adobe Illustrator 25.3.1, SVG Export Plug-In . SVG Version: 6.00 Build 0)  -->
<svg version="1.1" id="레이어_1" xmlns="http://www.w3.org/2000/svg" xmlns:xlink="http://www.w3.org/1999/xlink" x="0px"
	 y="0px" viewBox="0 0 24 24" style="enable-background:new 0 0 24 24;" xml:space="preserve">
<style type="text/css">
	.st0{fill:#000111;}
</style>
<g>
	<path class="st0" d="M12.11,23.56c-3.2,0-5.71-5.08-5.71-11.56S8.91,0.44,12.11,0.44c3.2,0,5.71,5.08,5.71,11.56
		S15.31,23.56,12.11,23.56z M12.11,1.34C9.51,1.34,7.3,6.22,7.3,12s2.2,10.66,4.81,10.66s4.81-4.88,4.81-10.66
		S14.72,1.34,12.11,1.34z"/>
	<path class="st0" d="M12,23.56C5.63,23.56,0.44,18.37,0.44,12S5.63,0.44,12,0.44c6.37,0,11.56,5.19,11.56,11.56
		S18.37,23.56,12,23.56z M12,1.34C6.12,1.34,1.34,6.12,1.34,12c0,5.88,4.78,10.66,10.66,10.66S22.66,17.88,22.66,12
		C22.66,6.12,17.88,1.34,12,1.34z"/>
	<g>
		<path class="st0" d="M12.46,8.04c-4.36,0-7.9-0.83-10.08-1.52C2.14,6.44,2.01,6.19,2.09,5.96c0.08-0.24,0.33-0.37,0.56-0.29
			c2.79,0.88,10.22,2.66,18.78,0.23c0.24-0.07,0.49,0.07,0.55,0.31c0.07,0.24-0.07,0.49-0.31,0.56C18.37,7.7,15.25,8.04,12.46,8.04z
			"/>
		<path class="st0" d="M23.08,13.21H0.92c-0.25,0-0.45-0.2-0.45-0.45c0-0.25,0.2-0.45,0.45-0.45h22.16c0.25,0,0.45,0.2,0.45,0.45
			C23.53,13.01,23.33,13.21,23.08,13.21z"/>
		<path class="st0" d="M3.45,19.55c-0.18,0-0.35-0.11-0.42-0.29c-0.09-0.23,0.03-0.49,0.26-0.58c2.77-1.06,10.03-3.19,17.52-0.11
			c0.23,0.09,0.34,0.36,0.24,0.59c-0.09,0.23-0.36,0.34-0.59,0.24c-7.19-2.96-14.18-0.9-16.86,0.12C3.56,19.54,3.5,19.55,3.45,19.55
			z"/>
		<path class="st0" d="M12.11,23.56c-0.25,0-0.45-0.2-0.45-0.45V0.89c0-0.25,0.2-0.45,0.45-0.45c0.25,0,0.45,0.2,0.45,0.45v22.22
			C12.56,23.36,12.36,23.56,12.11,23.56z"/>
	</g>
</g>
</svg>
